<?xml version="1.0" standalone="no"?>
<!DOCTYPE svg PUBLIC "-//W3C//DTD SVG 20010904//EN"
 "http://www.w3.org/TR/2001/REC-SVG-20010904/DTD/svg10.dtd">
<svg version="1.0" xmlns="http://www.w3.org/2000/svg"
 width="402.000000pt" height="402.000000pt" viewBox="0 0 402.000000 402.000000"
 preserveAspectRatio="xMidYMid meet">
<metadata>
Created by potrace 1.11, written by Peter Selinger 2001-2013
</metadata>
<g transform="translate(0.000000,402.000000) scale(0.100000,-0.100000)"
fill="#000000" stroke="none">
<path d="M938 4005 c-3 -3 -27 -8 -54 -11 -115 -11 -220 -33 -298 -61 -167
-59 -310 -172 -412 -325 -78 -117 -120 -248 -145 -453 -14 -112 -19 -1499 -7
-2025 7 -344 21 -444 82 -588 91 -216 277 -392 493 -467 73 -26 203 -49 343
-62 112 -10 2086 -10 2170 0 286 35 401 74 545 183 114 86 191 176 249 293 56
111 87 254 103 466 10 142 11 2051 0 2130 -4 33 -10 78 -13 100 -26 204 -67
321 -159 450 -86 122 -238 241 -369 290 -60 23 -194 53 -311 71 -55 9 -2209
17 -2217 9z"/>
</g>
</svg>
